<?xml version="1.0" encoding="UTF-8" standalone="no"?>
<!-- Created with Inkscape (http://www.inkscape.org/) -->

<svg
   width="70"
   height="70"
   viewBox="0 0 18.520834 18.520833"
   version="1.1"
   id="svg1"
   xmlns="http://www.w3.org/2000/svg"
   xmlns:svg="http://www.w3.org/2000/svg">
  <defs
     id="defs1" />
  <g
     id="layer1">
    <circle
       style="fill:#efd4c1;fill-opacity:1;stroke:none;stroke-width:0.463021"
       id="path2"
       cx="9.260417"
       cy="9.260417"
       r="9.260417" />
    <g
       id="g2"
       transform="matrix(0.0225507,0,0,0.0225507,3.439581,2.925388)"
       style="fill:#502d16">
	<path
   class="st0"
   d="m 512,152.469 c 0,-21.469 -17.422,-38.875 -38.891,-38.875 -21.484,0 -38.906,17.406 -38.906,38.875 0,10.5 4.172,20.016 10.938,27 -26.453,54.781 -77.016,73.906 -116.203,56.594 -34.906,-15.438 -47.781,-59.563 -52.141,-93.75 14.234,-7.484 23.938,-22.391 23.938,-39.594 C 300.734,78.016 280.719,58 256,58 c -24.703,0 -44.734,20.016 -44.734,44.719 0,17.203 9.703,32.109 23.938,39.594 -4.359,34.188 -17.234,78.313 -52.141,93.75 -39.188,17.313 -89.75,-1.813 -116.203,-56.594 6.766,-6.984 10.938,-16.5 10.938,-27 C 77.798,131 60.376,113.594 38.907,113.594 17.422,113.594 0,131 0,152.469 0,172.25 14.781,188.547 33.875,191.016 L 78.703,355.094 H 433.297 L 478.125,191.016 C 497.234,188.547 512,172.25 512,152.469 Z"
   id="path1"
   style="fill:#502d16" />

	<path
   class="st0"
   d="m 455.016,425.063 c 0,15.984 -12.953,28.938 -28.953,28.938 H 85.938 C 69.953,454 57,441.047 57,425.063 v -2.406 c 0,-16 12.953,-28.953 28.938,-28.953 h 340.125 c 16,0 28.953,12.953 28.953,28.953 z"
   id="path2-3"
   style="fill:#502d16" />

</g>
  </g>
</svg>
